<svg xmlns="http://www.w3.org/2000/svg" viewBox="0 0 100 100" fill="none" stroke="#efe2c6" stroke-width="0.9" stroke-linecap="round" stroke-linejoin="round">
  <title>두루미</title>
  <path d="M 3 90 C 13 90 25 90 34 89 Q 38 86 42 88 L 45 65 C 33 64 23 59 17 61 Q 19 57 22 54 Q 17 55 13 57 Q 17 51 21 48 Q 16 49 12 50 C 24 37 40 44 50 39 C 58 35 59 28 58 23 C 56 17 60 10 66 10 Q 73 10 75 17 Q 84 20 94 24 Q 84 25 73 22 C 68 25 67 27 68 31 C 74 40 70 51 63 58 Q 57 63 49 64 Q 49 69 59 75 Q 60 77 57 78 Q 52 79 47 83 Q 45 84 44 82 Q 47 79 54 76 Q 44 72 44 65 Q 47 64 48 66 L 45 88 Q 51 87 54 90 Q 47 90 43 90 Q 39 93 35 92 Q 36 89 41 88 Q 43 77 44 67 C 43 62 37 62 30 60 C 41 60 57 58 61 48 C 54 43 40 45 30 49 C 25 50 20 54 18 58 C 29 56 39 53 46 49 C 51 45 55 46 55 50 C 54 55 42 59 35 58 Q 34.47 52.49 32.73 46.98 C 33.3 47.8 31.2 50.26 28.03 52.47 C 24.87 54.69 21.84 55.83 21.27 55.02 C 20.7 54.2 22.8 51.74 25.97 49.53 C 29.13 47.31 32.16 46.17 32.73 46.98 Q 36.78 46.61 39.63 46.23 C 40.22 47.17 37.28 50.06 33.06 52.7 C 28.84 55.33 24.95 56.71 24.37 55.77 C 23.78 54.83 26.72 51.94 30.94 49.3 C 35.16 46.67 39.05 45.29 39.63 46.23 Q 43.33 46.27 45.83 46.31 C 46.43 47.43 42.96 50.44 38.08 53.03 C 33.2 55.62 28.77 56.82 28.17 55.69 C 27.57 54.57 31.04 51.56 35.92 48.97 C 40.8 46.38 45.23 45.18 45.83 46.31 Q 49.55 46.04 52.06 45.77 C 52.65 47.03 49.06 49.93 44.06 52.27 C 39.05 54.6 34.52 55.48 33.94 54.23 C 33.35 52.97 36.94 50.07 41.94 47.73 C 46.95 45.4 51.48 44.52 52.06 45.77 Q 55.18 45.41 57.09 45.05 C 57.62 46.15 54.43 48.8 49.96 50.98 C 45.5 53.16 41.44 54.04 40.91 52.95 C 40.38 51.85 43.57 49.2 48.04 47.02 C 52.5 44.84 56.56 43.96 57.09 45.05 Q 58.62 44.85 58.95 44.65 C 59.76 45.55 57.76 48.68 54.47 51.63 C 51.19 54.59 47.87 56.26 47.05 55.35 C 46.24 54.45 48.24 51.32 51.53 48.37 C 54.81 45.41 58.13 43.74 58.95 44.65 Q 60.44 47.32 60.73 49.98 C 61.37 50.89 59.31 53.42 56.15 55.64 C 52.98 57.86 49.9 58.92 49.27 58.02 C 48.63 57.11 50.69 54.58 53.85 52.36 C 57.02 50.14 60.1 49.08 60.73 49.98 Q 58.81 52.39 55.69 54.79 C 55.99 55.86 52.8 57.7 48.55 58.92 C 44.3 60.14 40.61 60.27 40.31 59.21 C 40.01 58.14 43.2 56.3 47.45 55.08 C 51.7 53.86 55.39 53.73 55.69 54.79 Q 51.89 56.29 46.89 57.78 C 47.06 58.71 44.1 60 40.3 60.67 C 36.49 61.35 33.27 61.14 33.11 60.22 C 32.94 59.29 35.9 58 39.7 57.33 C 43.51 56.65 46.73 56.86 46.89 57.78 Q 42.79 56.08 37.49 54.38 C 37.86 55.3 35.26 57.22 31.67 58.67 C 28.09 60.12 24.88 60.54 24.51 59.62 C 24.14 58.7 26.74 56.78 30.33 55.33 C 33.91 53.88 37.12 53.46 37.49 54.38 C 43 59 58 59 63 50 C 68 41 61 36 63 29 C 64 23 69 22 69 18 Q 68 16.5 67 15 Q 67.66 15.05 68.2 15.42 Q 68.72 15.78 69 16.35 Q 69.26 16.89 69.21 17.5 Q 69.16 18.08 68.83 18.56 Q 68.51 19.01 68.01 19.25 Q 67.53 19.47 67 19.42 Q 66.5 19.38 66.09 19.08 Q 65.7 18.8 65.5 18.37 Q 65.32 17.95 65.37 17.5 Q 65.41 17.07 65.67 16.73 Q 65.91 16.41 66.28 16.25 Q 66.63 16.11 67 16.15 Q 67.35 16.2 67.63 16.42 Q 67.88 16.62 68 16.92 Q 68.11 17.2 68.06 17.5 Q 68.01 17.77 67.83 17.98 Q 67.67 18.17 67.43 18.25 Q 67.22 18.32 67 18.27 Q 66.81 18.22 66.66 18.08 Q 66.54 17.96 66.5 17.79 Q 66.47 17.64 66.52 17.5 Q 66.57 17.38 66.67 17.31 Q 66.75 17.25 66.86 17.25 Q 66.94 17.26 67 17.31 Q 65 20 62 21 C 60 20 61 15 63 14 Q 62 11 64 12 Q 65 9 66 12 Q 68 9 69 12 Q 72 11 71 14 Q 71 16 74 18 Q 81 21 89 23 Q 81 23 73 21 Q 68 23 65 23 C 61 29 65 34 66 39 C 67 46 63 52 58 56 C 65 43 56 40 61 30 C 62 26 61 25 60 22 C 62 36 54 42 48 44 Q 44 44 41 46 Q 44.49 44.77 46.78 43.54 C 47.04 44.38 45.11 45.72 42.47 46.53 C 39.83 47.34 37.48 47.31 37.22 46.46 C 36.96 45.62 38.89 44.28 41.53 43.47 C 44.17 42.66 46.52 42.69 46.78 43.54 Q 44.37 43.5 40.76 43.45 C 41.05 44.35 39.15 45.76 36.53 46.62 C 33.9 47.47 31.53 47.44 31.24 46.55 C 30.95 45.65 32.85 44.24 35.47 43.38 C 38.1 42.53 40.47 42.56 40.76 43.45 Q 38.3 43.79 34.64 44.13 C 34.95 44.9 33.12 46.36 30.56 47.39 C 28 48.43 25.67 48.64 25.36 47.87 C 25.05 47.1 26.88 45.64 29.44 44.61 C 32 43.57 34.33 43.36 34.64 44.13 Q 32.08 44.81 28.33 45.5 C 28.72 46.17 27.09 47.83 24.7 49.21 C 22.31 50.59 20.06 51.17 19.67 50.5 C 19.28 49.83 20.91 48.17 23.3 46.79 C 25.69 45.41 27.94 44.83 28.33 45.5 Q 28.97 48.58 28.41 51.65 C 28.8 52.38 27.14 54.03 24.7 55.32 C 22.27 56.62 19.97 57.08 19.59 56.35 C 19.2 55.62 20.86 53.97 23.3 52.68 C 25.73 51.38 28.03 50.92 28.41 51.65 C 31 61 42 63 47 61 Q 49 65 48 68 Q 51 72 57 76 Q 51 78 48 81 Q 45 85 44 89 Q 49 89 53 91 C 67 90 82 90 97 90"/>
</svg>
