<svg xmlns="http://www.w3.org/2000/svg" viewBox="0 0 100 100" fill="none" stroke="#efe2c6" stroke-width="0.9" stroke-linecap="round" stroke-linejoin="round">
  <title>닥스훈트</title>
  <path d="M 3 83 C 9 83 15 83 21 83 Q 24 83 25 81.9 Q 20 81.9 19 79.7 Q 17 75.3 20 70.1 C 16 67.1 16 61.1 18 57.1 C 11 54.1 7 47.1 7 39.1 Q 7 35.1 9 37.1 C 11 45.1 16 48.1 22 49.1 C 33 47.1 48 52.1 60 50.1 Q 65 49.1 66 44.1 C 66 35.1 73 31.1 81 34.1 C 85 35.1 87 40.1 86 43.1 Q 91 45.1 95 45.1 C 97 47.1 96 52.1 92 54.1 Q 89 56.1 85 55.1 C 88 60.1 85 64.1 82 62.1 Q 79 60.1 81 56.1 Q 77 55.1 76 57.1 C 78 66.1 77 72.1 74 74.75 Q 74 77.5 77 79.15 Q 81 79.7 80 81.35 Q 78 83 76 81.35 Q 75 83.55 72 83 Q 69 83 70 80.8 Q 68 83 66 81.9 Q 64 80.8 66 79.15 Q 64 76.4 64 74.75 C 53 75.85 39 73.65 31 74.2 Q 29 76.95 31 79.15 Q 36 79.7 35 81.35 Q 34 83 31 81.35 Q 30 83.55 27 83 Q 24 83 25 80.8 Q 23 83 21 81.9 Q 18 80.8 21 79.15 C 22 75.85 20 73.1 25 68.1 C 30 63.1 35 66.1 34 71.1 Q 33 74.2 35 75.85 Q 39 76.4 39 78.05 Q 37 79.7 35 77.5 Q 33 79.7 31 78.6 C 29 76.4 29 74.2 31 72.1 C 42 73.1 53 75.3 62 73.1 Q 63 75.3 61 77.5 Q 65 78.05 65 79.7 Q 62 81.35 60 79.7 Q 58 81.35 56 79.7 C 55 77.5 58 74.75 58 72.1 C 50 68.1 36 71.1 29 67.1 C 23 64.1 22 56.1 29 54.1 C 38 51.1 49 57.1 59 54.1 C 64 54.1 65 50.1 66 45.1 C 64 39.1 68 36.1 73 38.1 C 78 41.1 76 50.1 76 56.1 C 76 65.1 73 70.1 69 69.1 C 62 68.1 63 56.1 65 51.1 C 67 46.1 70 41.1 72 42.1 C 74 45.1 71 52.1 71 57.1 C 72 63.1 70 66.1 68 64.1 C 66 59.1 68 53.1 69 50.1 C 70 46.1 69 43.1 68 44.1 C 65 52.1 61 60.1 65 67.1 C 69 73.65 76 71.1 74 65.1 C 72 57.1 77 54.1 80 51.1 Q 82.026 46.831 84.053 42.562 C 84.408 44.574 83.139 46.175 81.59 46.448 C 80.041 46.721 78.74 45.236 78.443 43.551 C 78.146 41.865 79.239 40.569 80.514 40.344 C 81.789 40.12 82.821 41.378 83.061 42.737 C 83.3 44.095 82.383 45.087 81.381 45.263 C 80.38 45.44 79.617 44.407 79.435 43.376 C 79.254 42.345 79.996 41.657 80.723 41.529 C 81.45 41.4 81.944 42.207 82.069 42.912 Q 83 45.1 86 47.1 Q 90 48.1 93 47.1 Q 94.05 47.6 95.1 48.1 C 95.1 49.094 93.971 49.608 93 49.608 C 92.029 49.608 91.582 48.771 91.582 48.1 C 91.582 47.429 92.406 47.178 93 47.178 C 93.594 47.178 93.735 47.752 93.735 48.1 Q 93 52.1 88 53.1 C 84 52.1 82 51.1 81 52.1 Q 83 54.1 84 57.1 Q 84 61.1 82 59.1 Q 82 56.1 81 55.1 C 77 53.1 75 53.1 76 56.1 C 78 63.1 76 68.1 72 72.1 C 64 72.1 60 69.1 56 66.1 C 49 61.1 44 62.1 39 65.1 C 32 70.1 26 65.1 28 61.1 C 31 57.1 36 60.1 35 63.1 C 34 68.1 39 70.1 44 66.1 C 48 63.1 45 58.1 41 58.1 C 35 57.1 36 65.1 41 66.1 C 47 69.1 54 69.1 55 64.1 C 55 59.1 47 57.1 47 62.1 C 47 66.1 56 68.1 60 64.1 C 62 61.1 59 57.1 56 58.1 C 51 61.1 59 68.1 64 68.1 C 62 71.1 56 72.1 50 71.1 C 41 70.1 34 72.1 27 69.1 C 23 68.1 22 64.1 23 61.1 C 21 59.1 20 56.1 22 53.1 C 17 51.1 12 48.1 10 42.1 C 11 50.1 16 54.1 21 55.1 C 23 51.1 29 51.1 33 54.1 C 38 57.1 44 54.1 48 55.1 C 52 56.1 58 58.1 61 55.1 C 63 54.1 63 51.1 63 51.1 C 59 53.1 53 54.1 48 53.1 C 39 51.1 29 50.1 25 55.1 C 20 62.1 25 68.1 25 73.65 Q 24 78.05 25 79.7 Q 27 82.45 33 83 C 45 83 61 83 74 83 C 82 83 90 83 97 83"/>
</svg>
