<svg xmlns="http://www.w3.org/2000/svg" viewBox="0 0 100 100" fill="none" stroke="#efe2c6" stroke-width="0.9" stroke-linecap="round" stroke-linejoin="round">
  <title>잠자리</title>
  <path d="M 3 91 C 14 91 22 91 27 91 C 36 90 40 85 49 83 C 46 72 46 57 46 44 Q 46 44 46 44 C 40.85 56.936 17.29 71.196 8 67 C 7.45 57.514 32.15 42.564 46 44 C 35.092 56.002 16.905 64.556 10.567 65.447 C 17.225 56.507 36.878 46.085 46 44 Q 43.476 45.528 40.953 47.055 C 41.828 48.502 41.734 50.162 40.742 50.762 C 39.749 51.363 38.235 50.677 37.359 49.23 C 36.484 47.783 36.578 46.123 37.57 45.523 C 38.563 44.922 40.077 45.608 40.953 47.055 Q 38.474 48.523 35.995 49.992 C 37.06 52.389 37.007 54.74 35.877 55.242 C 34.746 55.744 32.966 54.208 31.901 51.81 C 30.836 49.413 30.889 47.062 32.02 46.56 C 33.15 46.058 34.93 47.594 35.995 49.992 Q 33.54 51.486 31.085 52.98 C 32.318 55.833 32.339 58.568 31.133 59.09 C 29.926 59.611 27.949 57.721 26.716 54.869 C 25.483 52.016 25.462 49.28 26.669 48.759 C 27.875 48.238 29.853 50.128 31.085 52.98 Q 28.647 54.478 26.209 55.975 C 27.739 58.627 28.001 61.341 26.796 62.036 C 25.59 62.731 23.373 61.145 21.843 58.493 C 20.314 55.841 20.051 53.127 21.257 52.432 C 22.462 51.736 24.68 53.323 26.209 55.975 Q 23.746 57.468 21.284 58.962 C 22.808 60.934 23.101 63.262 21.938 64.16 C 20.776 65.058 18.598 64.187 17.074 62.214 C 15.55 60.241 15.256 57.914 16.419 57.016 C 17.582 56.118 19.76 56.989 21.284 58.962 C 19.4 60.1 34.842 49.584 46 44 Q 46 40.5 46 37 C 32.824 38.402 9.264 25.382 8 16 C 15.476 11.448 40.176 25.098 46 37 C 30.678 33.309 14.497 22.196 10.626 17.451 C 21.238 18.974 39.687 30.472 46 37 Q 43.418 35.573 40.836 34.146 C 40.081 35.513 38.646 36.166 37.631 35.605 C 36.615 35.044 36.405 33.481 37.16 32.115 C 37.915 30.748 39.35 30.095 40.366 30.656 C 41.381 31.217 41.591 32.78 40.836 34.146 Q 38.416 32.777 35.995 31.409 C 34.587 33.335 32.636 34.306 31.637 33.576 C 30.638 32.846 30.97 30.692 32.378 28.765 C 33.786 26.839 35.737 25.868 36.736 26.598 C 37.735 27.328 37.403 29.482 35.995 31.409 Q 33.564 30.073 31.133 28.738 C 29.45 30.992 27.232 32.183 26.178 31.396 C 25.125 30.61 25.635 28.145 27.318 25.891 C 29.001 23.636 31.219 22.446 32.273 23.232 C 33.326 24.019 32.816 26.484 31.133 28.738 Q 28.707 27.419 26.282 26.1 C 24.89 28.496 22.787 29.872 21.583 29.174 C 20.38 28.475 20.532 25.966 21.923 23.569 C 23.315 21.172 25.418 19.796 26.622 20.495 C 27.826 21.194 27.673 23.703 26.282 26.1 Q 23.848 24.757 21.413 23.414 C 20.549 25.51 18.747 26.754 17.389 26.194 C 16.031 25.634 15.631 23.481 16.496 21.385 C 17.36 19.29 19.162 18.045 20.52 18.605 C 21.878 19.166 22.278 21.319 21.413 23.414 C 19.4 22.3 35.844 30.245 46 37 C 43 34 43 29 45 27 C 39 26 38 22 40 18 C 42 13 48 14 50 17 C 53 12 60 14 61 19 C 63 24 59 28 55 27 C 58 29 58 33 55 37 Q 55 37 55 37 C 60.792 25.096 84.352 11.456 93 15 C 92.908 23.604 68.208 37.904 55 37 C 66.261 25.778 84.288 17.479 90.404 16.503 C 83.454 24.802 63.898 34.841 55 37 Q 57.553 35.522 60.106 34.044 C 59.352 32.741 59.554 31.214 60.558 30.633 C 61.562 30.052 62.987 30.637 63.741 31.94 C 64.495 33.242 64.293 34.769 63.289 35.35 C 62.285 35.932 60.86 35.347 60.106 34.044 Q 62.569 32.65 65.031 31.255 C 64.132 29.12 64.327 26.999 65.467 26.519 C 66.607 26.039 68.261 27.381 69.16 29.517 C 70.06 31.652 69.864 33.773 68.724 34.253 C 67.584 34.733 65.931 33.391 65.031 31.255 Q 67.471 29.835 69.91 28.414 C 68.873 25.879 69.019 23.421 70.235 22.923 C 71.452 22.426 73.279 24.077 74.316 26.611 C 75.353 29.146 75.207 31.604 73.991 32.102 C 72.774 32.6 70.947 30.949 69.91 28.414 Q 72.333 26.99 74.756 25.566 C 73.454 23.203 73.387 20.743 74.606 20.072 C 75.824 19.4 77.868 20.771 79.17 23.134 C 80.472 25.496 80.539 27.956 79.32 28.628 C 78.101 29.3 76.058 27.929 74.756 25.566 Q 77.203 24.147 79.65 22.727 C 78.338 20.959 78.231 18.816 79.411 17.94 C 80.591 17.065 82.611 17.789 83.923 19.557 C 85.235 21.325 85.342 23.469 84.162 24.344 C 82.982 25.219 80.962 24.495 79.65 22.727 C 81.6 21.6 66.141 31.705 55 37 Q 55 40.5 55 44 C 68.732 41.854 92.912 54.874 94 65 C 86.118 70.296 60.768 56.646 55 44 C 70.84 47.282 87.395 58.581 91.359 63.578 C 80.309 62.398 61.406 50.789 55 44 Q 57.597 45.399 60.195 46.797 C 60.999 45.304 62.478 44.54 63.499 45.09 C 64.52 45.64 64.697 47.296 63.893 48.788 C 63.089 50.281 61.61 51.046 60.588 50.496 C 59.567 49.946 59.391 48.29 60.195 46.797 Q 62.707 48.181 65.22 49.565 C 66.746 47.429 68.798 46.28 69.805 46.999 C 70.812 47.718 70.391 50.032 68.866 52.169 C 67.34 54.305 65.287 55.454 64.28 54.735 C 63.274 54.016 63.694 51.701 65.22 49.565 Q 67.743 50.915 70.266 52.266 C 72.098 49.755 74.444 48.348 75.505 49.122 C 76.567 49.897 75.943 52.561 74.111 55.071 C 72.279 57.582 69.933 58.989 68.872 58.214 C 67.81 57.44 68.434 54.776 70.266 52.266 Q 72.783 53.6 75.3 54.934 C 76.808 52.27 79.013 50.665 80.224 51.351 C 81.435 52.037 81.194 54.753 79.686 57.417 C 78.177 60.082 75.973 61.686 74.762 61 C 73.551 60.314 73.791 57.599 75.3 54.934 Q 77.826 56.292 80.352 57.649 C 81.278 55.333 83.135 53.898 84.499 54.443 C 85.863 54.989 86.218 57.309 85.291 59.625 C 84.365 61.941 82.509 63.376 81.145 62.831 C 79.78 62.285 79.426 59.966 80.352 57.649 C 82.3 58.7 65.446 50.76 55 44 C 56 56 54 76 52 83 Q 50 87 49 83 C 48 75 48 60 49 50 Q 48.176 50.563 47.353 51.126 C 47.306 49.967 48.678 48.971 50.416 48.902 C 52.154 48.832 53.601 49.715 53.647 50.874 C 53.694 52.033 52.322 53.029 50.584 53.098 C 48.846 53.168 47.399 52.285 47.353 51.126 Q 47.457 52.947 47.562 54.768 C 47.516 53.609 48.794 52.617 50.416 52.552 C 52.038 52.487 53.391 53.374 53.438 54.532 C 53.484 55.691 52.206 56.683 50.584 56.748 C 48.962 56.813 47.609 55.926 47.562 54.768 Q 47.667 56.588 47.772 58.409 C 47.726 57.25 48.909 56.262 50.416 56.202 C 51.923 56.141 53.181 57.032 53.228 58.191 C 53.274 59.35 52.091 60.338 50.584 60.398 C 49.077 60.459 47.819 59.568 47.772 58.409 Q 47.877 60.23 47.982 62.051 C 47.936 60.892 49.025 59.907 50.416 59.852 C 51.807 59.796 52.972 60.69 53.018 61.849 C 53.064 63.008 51.975 63.993 50.584 64.048 C 49.193 64.104 48.028 63.21 47.982 62.051 Q 48.087 63.872 48.192 65.692 C 48.145 64.534 49.141 63.553 50.416 63.502 C 51.691 63.451 52.762 64.349 52.808 65.508 C 52.855 66.666 51.859 67.647 50.584 67.698 C 49.309 67.749 48.238 66.851 48.192 65.692 Q 48.297 67.513 48.402 69.334 C 48.355 68.175 49.257 67.198 50.416 67.152 C 51.575 67.105 52.552 68.007 52.598 69.166 C 52.645 70.325 51.743 71.302 50.584 71.348 C 49.425 71.395 48.448 70.493 48.402 69.334 Q 48.507 71.155 48.612 72.976 C 48.565 71.817 49.373 70.843 50.416 70.802 C 51.459 70.76 52.342 71.666 52.388 72.824 C 52.435 73.983 51.627 74.957 50.584 74.998 C 49.541 75.04 48.658 74.134 48.612 72.976 Q 48.716 74.796 48.821 76.617 C 48.775 75.458 49.489 74.489 50.416 74.452 C 51.343 74.415 52.132 75.324 52.179 76.483 C 52.225 77.642 51.511 78.611 50.584 78.648 C 49.657 78.685 48.868 77.776 48.821 76.617 C 53 70 54 57 53 46 Q 54.196 42.6 55.391 39.2 C 55.663 43.721 53.648 47.52 50.892 47.685 C 48.135 47.851 45.681 44.32 45.409 39.8 C 45.137 35.279 47.152 31.48 49.908 31.315 C 52.665 31.149 55.119 34.68 55.391 39.2 Q 54.576 38.089 53.762 36.978 C 53.295 39.868 51.591 41.996 49.956 41.732 C 48.32 41.468 47.372 38.912 47.838 36.022 C 48.305 33.132 50.009 31.004 51.644 31.268 C 53.28 31.532 54.228 34.088 53.762 36.978 C 49 30 46 27 43 25 Q 45.218 24.321 47.436 23.641 C 47.139 23.816 46.283 24.512 45.657 24.69 C 45.031 24.869 44.283 24.863 43.678 24.712 C 43.073 24.561 42.456 24.199 42.027 23.786 C 41.598 23.373 41.26 22.779 41.102 22.234 C 40.944 21.688 40.949 21.037 41.077 20.512 C 41.206 19.987 41.52 19.454 41.874 19.084 C 42.229 18.713 42.739 18.425 43.205 18.289 C 43.671 18.154 44.225 18.16 44.669 18.27 C 45.114 18.379 45.562 18.647 45.872 18.945 C 46.181 19.243 46.418 19.672 46.528 20.059 C 46.639 20.446 46.627 20.903 46.535 21.267 C 46.443 21.63 46.218 21.992 45.974 22.239 C 45.73 22.487 45.381 22.669 45.072 22.752 C 44.763 22.835 44.402 22.815 44.12 22.737 C 43.838 22.659 43.565 22.475 43.381 22.283 C 43.197 22.092 43.072 21.821 43.019 21.589 C 42.965 21.357 42.996 21.092 43.062 20.892 C 43.129 20.691 43.276 20.507 43.417 20.388 C 43.558 20.27 43.753 20.204 43.909 20.183 C 44.065 20.162 44.279 20.25 44.353 20.264 C 47 25 52 27 55 25 Q 57.388 23.798 59.776 22.597 C 59.551 22.848 58.955 23.751 58.422 24.107 C 57.889 24.464 57.191 24.688 56.578 24.735 C 55.965 24.783 55.276 24.642 54.741 24.394 C 54.207 24.146 53.699 23.705 53.37 23.247 C 53.04 22.79 52.825 22.185 52.765 21.65 C 52.705 21.116 52.81 20.513 53.01 20.042 C 53.21 19.571 53.58 19.12 53.965 18.824 C 54.35 18.528 54.865 18.329 55.321 18.264 C 55.776 18.199 56.293 18.276 56.697 18.434 C 57.102 18.592 57.489 18.896 57.747 19.213 C 58.004 19.53 58.179 19.958 58.243 20.335 C 58.306 20.713 58.249 21.142 58.126 21.477 C 58.003 21.811 57.759 22.132 57.506 22.345 C 57.252 22.558 56.908 22.702 56.608 22.757 C 56.307 22.811 55.967 22.767 55.703 22.672 C 55.44 22.578 55.192 22.386 55.028 22.192 C 54.863 21.998 54.758 21.734 54.719 21.509 C 54.68 21.283 54.72 21.031 54.792 20.841 C 54.864 20.651 55.011 20.479 55.151 20.369 C 55.291 20.259 55.479 20.198 55.631 20.181 C 55.784 20.164 55.991 20.251 56.063 20.265 C 54 28 49 30 45 27 C 44 30 43 33 40 34 Q 38 34 36 31 Q 37 35 41 36 C 44 37 44 39 44 40 Q 41 43 37 41 Q 37 45 43 44 Q 46 44 46 46 Q 43 49 41 49 Q 43 52 47 48 C 50 45 53 43 55 44 Q 59 45 63 41 Q 61 46 56 47 Q 55 49 59 51 Q 62 51 64 49 Q 61 54 56 52 C 56 62 57 79 63 84 C 71 91 84 91 97 91"/>
</svg>
