<svg xmlns="http://www.w3.org/2000/svg" viewBox="0 0 100 100" fill="none" stroke="#efe2c6" stroke-width="0.9" stroke-linecap="round" stroke-linejoin="round">
  <title>얼룩말</title>
  <path d="M 3 86 C 9 86 15 86 20 86
 Q 23 86 24 84 Q 23 81 20 80
 C 23 77 29 73 30 68 Q 31 63 30 59
 C 24 60 21 54 23 47 C 25 40 29 38 33 37
 C 25 37 21 41 20 47 C 19 52 16 54 13 55
 C 11 56 8 60 10 64 Q 11 61 13 60 Q 11 64 13 66
 Q 17 63 17 59 Q 17 62 19 61 C 20 58 19 55 16 55
 C 21 54 23 49 24 45 C 26 39 30 36 37 36
 C 44 35 51 37 58 36
 Q 56 33 60 34 Q 57 30 61 31 Q 58 27 62 28
 Q 60 24 64 25
 Q 61 25 63 23 Q 64 22 66 23 Q 63 20 66 19
 Q 67 19 68 21 Q 66 17 69 17 Q 70 17 70 20
 C 67 15 68 10 70 8 C 75 10 77 16 74 21
 C 73 18 70 13 71 12 C 74 14 74 18 74 20
 C 76 15 79 12 83 12 C 84 18 81 23 77 24
 C 78 19 81 15 81 16 C 82 19 79 23 78 23
 C 82 24 84 30 87 33 C 90 35 94 36 95 40
 C 96 44 92 47 88 46 C 83 45 80 42 76 40
 C 73 39 73 44 72 48 C 72 54 74 57 73 63
 C 75 66 79 70 80 73 C 81 75 79 78 77 80
 Q 76 83 78 85 Q 81 86 84 84 Q 82 81 81 80
 C 84 76 85 72 81 67 C 77 62 77 57 74 53
 C 75 58 74 61 76 64 Q 80 65 78 66 Q 76 68 76 65
 C 77 66 81 69 81 71 Q 77 72 79 73 Q 83 74 82 72
 C 83 75 81 78 80 79 Q 77 79 79 81 Q 82 82 81 80
 C 84 74 81 70 78 66 C 76 62 75 57 74 53
 C 71 60 64 64 57 65 C 49 67 42 64 36 61
 C 37 67 39 72 36 77 C 34 80 32 81 33 84
 Q 38 87 39 89 Q 34 91 29 89
 C 28 86 27 82 30 78 C 33 73 32 66 29 63
 C 30 69 25 73 23 76 Q 21 78 20 80
 Q 18 82 20 85 C 22 83 24 85 24 84
 C 24 81 20 82 18 83 C 21 78 25 75 27 73
 C 24 72 24 70 28 70 Q 32 71 30 73
 C 27 74 26 70 28 66 C 31 64 34 65 35 67
 Q 36 70 32 69 Q 30 69 31 67
 C 34 68 36 75 32 78 Q 30 80 31 82
 C 29 79 31 76 33 76 Q 36 77 34 79
 C 36 77 35 73 35 70 C 35 64 31 62 28 60
 C 25 58 25 51 27 47 C 28 44 31 42 32 40
 C 30 45 27 49 28 53 C 29 57 31 58 30 61
 C 34 56 30 52 32 47 C 34 43 36 42 35 39
 C 39 41 35 46 35 51 C 35 56 39 59 37 63
 C 42 61 38 55 39 51 C 39 46 41 43 40 39
 C 45 41 42 46 42 51 C 42 56 47 60 44 64
 C 49 62 46 55 46 51 C 47 45 48 42 46 39
 C 52 41 49 46 49 51 C 49 56 53 60 51 65
 C 56 63 53 57 53 52 C 53 47 56 43 53 40
 C 60 42 56 48 56 52 C 56 57 61 59 58 64
 C 64 62 60 55 60 51 C 60 46 63 44 61 41
 C 66 43 63 47 64 52 C 65 56 66 59 63 61
 C 69 60 67 53 66 48 C 66 44 68 40 70 38
 C 69 40 63 40 61 38 C 65 39 71 38 72 36
 C 70 35 65 37 64 35 C 63 33 69 33 72 34
 C 74 33 69 31 66 32 C 63 32 67 29 71 31
 C 75 33 74 30 70 29 Q 66 28 67 26 Q 70 25 74 28
 C 76 29 78 29 79 29
    Q 78.47567181092609 28.312229535780965 77.951 27.624
    C 78.347 27.379 78.793 27.25 79.23 27.244
    C 79.667 27.238 80.095 27.354 80.461 27.568
    C 80.828 27.782 81.132 28.092 81.344 28.453
    C 81.555 28.813 81.674 29.223 81.693 29.627
    C 81.712 30.031 81.632 30.429 81.473 30.771
    C 81.315 31.114 81.077 31.402 80.799 31.605
    C 80.521 31.808 80.202 31.926 79.887 31.954
    C 79.571 31.982 79.26 31.921 78.991 31.787
    C 78.722 31.654 78.496 31.45 78.335 31.209
    C 78.174 30.968 78.078 30.691 78.051 30.417
    C 78.024 30.143 78.066 29.874 78.161 29.641
    C 78.256 29.409 78.404 29.215 78.578 29.077
    C 78.753 28.939 78.952 28.858 79.148 28.835
    C 79.343 28.813 79.533 28.847 79.695 28.925
    C 79.856 29.002 79.988 29.122 80.079 29.259
    C 80.169 29.397 80.218 29.552 80.228 29.7
    C 80.238 29.847 80.209 29.986 80.154 30.099
    C 80.098 30.211 80.018 30.297 79.931 30.349
    C 80 30 83 32 85 35 C 86 38 87 43 91 43
 C 94 43 94 39 92 39 C 90 38 88 41 90 42
 C 93 45 88 46 85 42 C 83 40 82 39 79 38
 C 76 37 74 35 74 33 C 76 35 80 36 82 38
 C 80 37 77 32 75 29 C 73 26 72 24 70 24
 C 66 27 63 32 62 37
 C 58 42 59 44 63 44 C 68 44 67 42 64 43
 C 59 46 62 50 67 49 C 71 48 69 45 66 47
 C 63 50 66 54 70 53 Q 73 55 69 57
 C 65 57 64 54 63 53 C 62 57 61 63 62 68
 C 63 72 61 78 62 82 C 65 82 70 82 73 85
 Q 69 87 63 86 Q 60 86 60 84
 C 60 76 58 70 59 65 C 60 61 64 59 68 60
 Q 73 62 69 64 Q 66 65 63 63
 C 67 63 70 63 70 67 C 68 69 64 69 63 67
 C 61 65 69 67 69 71 Q 69 74 64 73 Q 62 71 66 72
 C 69 73 69 77 67 80 Q 71 81 73 83
 Q 77 85 76 87 C 72 88 64 87 62 86
 C 74 86 86 86 97 86"/>
</svg>
